HIERARCHY
ROOT Hips
{
	OFFSET 0.00000 0.00000 0.00000
	CHANNELS 6 Xposition Yposition Zposition Yrotation Zrotation Xrotation 
	JOINT Lumbar
	{
		OFFSET 0 0 0
		CHANNELS 3 Zrotation Xrotation Yrotation
		JOINT Neck
		{
			OFFSET 0.00 0.2701 0.00
			CHANNELS 3 Zrotation Xrotation Yrotation
			End Site
			{
				OFFSET 0.00 0.1379 0.00
			}
		}
		JOINT RightShoulder
		{
			OFFSET 0.0119 0.2289 0.1181
			CHANNELS 3 Zrotation Xrotation Yrotation
			JOINT RightElbow
			{
				OFFSET 0.00 -0.1475 0.00
				CHANNELS 2 Zrotation Yrotation
				JOINT RightWrist
				{
					OFFSET 0.00 -0.1605 0.00
					CHANNELS 2 Zrotation Xrotation
					End Site
					{
						OFFSET 0.0040 -0.1068 0.0006
					}
				}
			}
		}
		JOINT LeftShoulder
		{
			OFFSET 0.0119 0.2289 -0.1181
			CHANNELS 3 Zrotation Xrotation Yrotation
			JOINT LeftElbow
			{
				OFFSET 0.00 -0.1475 0.00
				CHANNELS 2 Zrotation Yrotation
				JOINT LeftWrist
				{
					OFFSET 0.00 -0.1605 0.00
					CHANNELS 2 Zrotation Xrotation
					End Site
					{
						OFFSET 0.0040 -0.1068 -0.0006
					}
				}
			}
		}
	}
	JOINT RightHip
	{
		OFFSET 0.0316 -0.0424 0.0458
		CHANNELS 3 Zrotation Xrotation Yrotation
		JOINT RightKnee
		{
			OFFSET 0.00 -0.2438 0.00
			CHANNELS 1 Zrotation
			JOINT RightAnkle
			{
				OFFSET 0.00 -0.2449 0.00
				CHANNELS 3 Zrotation Xrotation Yrotation
				End Site
				{
					OFFSET 0.1237 -0.0542 0.0051
				}
			}
		}
	}
	JOINT LeftHip
	{
		OFFSET 0.0316 -0.0424 -0.0458
		CHANNELS 3 Zrotation Xrotation Yrotation
		JOINT LeftKnee
		{
			OFFSET 0.00 -0.2438 0.00
			CHANNELS 1 Zrotation
			JOINT LeftAnkle
			{
				OFFSET 0.00 -0.2449 0.00
				CHANNELS 3 Zrotation Xrotation Yrotation
				End Site
				{
					OFFSET 0.1237 -0.0542 -0.0051
				}
			}
		}
	}
}
MOTION
Frames: 17
Frame Time: 0.02
-0 0.57926 -0 177.06068 0 -2.60953 6.84513 3.16689 -0.06554 -24.479 0.82173 1.12832 9.49112 -71.45621 -85.68435 25.07765 63.22148 -31.63419 -0.93785 36.35805 71.86081 52.59192 18.22182 -87.5752 -34.06373 3.71224 -4.62307 7.39325 -6.42145 -7.78488 4.92037 -4.72339 -8.77612 -3.91163 1.9798 4.07592 -7.68473 7.01396 5.66708 9.34077
0.00019 0.57928 0.00033 177.05009 0 -2.62599 6.82755 3.17685 -0.13271 -24.80843 0.82223 1.2089 9.53834 -71.51023 -85.92591 25.10937 63.55568 -31.68524 -0.8773 36.40234 71.82956 52.68581 18.33771 -87.40825 -34.29086 3.701 -4.59174 7.38072 -6.42817 -7.80212 4.90555 -4.72854 -8.78091 -3.87761 1.96188 4.04928 -7.71354 7.015 5.67326 9.37648
0.00038 0.5793 0.00066 177.03934 0 -2.64241 6.80969 3.1867 -0.19946 -25.13718 0.82283 1.28929 9.58615 -71.56419 -86.16572 25.14083 63.88783 -31.73538 -0.81716 36.44736 71.79826 52.77723 18.45461 -87.24046 -34.51509 3.68963 -4.56033 7.36823 -6.43451 -7.81925 4.89073 -4.73365 -8.78579 -3.8437 1.94405 4.02314 -7.74194 7.01597 5.67936 9.41187
0.00057 0.57932 0.00099 177.02825 0 -2.65861 6.7917 3.19624 -0.26458 -25.46658 0.82397 1.36887 9.63612 -71.6187 -86.40153 25.17127 64.21172 -31.78374 -0.75778 36.49608 71.76662 52.86089 18.5758 -87.06303 -34.73018 3.67716 -4.52914 7.35559 -6.44039 -7.83542 4.87581 -4.7388 -8.79057 -3.81008 1.92612 3.99812 -7.76927 7.01687 5.68535 9.44657
0.00074 0.57934 0.00133 177.0195 0 -2.67567 6.77582 3.20744 -0.3376 -25.79275 0.8224 1.45178 9.67374 -71.67067 -86.65942 25.2067 64.57527 -31.84311 -0.694 36.5256 71.73706 52.98685 18.67336 -86.93072 -34.99408 3.6699 -4.49784 7.3435 -6.45001 -7.85579 4.86149 -4.74394 -8.79519 -3.77519 1.90835 3.9664 -7.80262 7.01835 5.69214 9.48524
0.00096 0.57936 0.00165 177.00542 0 -2.69112 6.75453 3.21514 -0.39434 -26.12524 0.82646 1.52823 9.73807 -71.7277 -86.86973 25.23182 64.85735 -31.87809 -0.63986 36.59543 71.70295 53.02247 18.82137 -86.70721 -35.15419 3.65206 -4.46608 7.33042 -6.4508 -7.86785 4.84584 -4.74896 -8.80061 -3.74284 1.89051 3.94938 -7.82295 7.01844 5.69709 9.51527
0.0013 0.57937 0.00197 176.97882 0 -2.70063 6.72479 3.21259 -0.40199 -26.48601 0.84805 1.5825 9.87682 -71.80201 -86.95276 25.22595 64.89278 -31.85357 -0.61011 36.78586 71.65533 52.81137 19.10993 -86.18956 -35.02222 3.60105 -4.43782 7.31306 -6.43208 -7.85201 4.82647 -4.7548 -8.80655 -3.71824 1.87016 3.97014 -7.8088 7.01588 5.69804 9.52277
0.0017 0.57937 0.00227 176.9463 0 -2.70881 6.68809 3.20647 -0.39401 -26.85112 0.87523 1.631 10.04345 -71.88035 -86.98568 25.21018 64.85146 -31.80336 -0.59076 37.01612 71.60267 52.51156 19.44731 -85.59231 -34.78509 3.54098 -4.40791 7.29517 -6.40217 -7.82904 4.80565 -4.76029 -8.8149 -3.69602 1.85026 4.00644 -7.78116 7.01157 5.69689 9.52119
0.00208 0.57938 0.00258 176.91513 0 -2.71852 6.65064 3.20257 -0.39582 -27.2082 0.89831 1.68516 10.19592 -71.95545 -87.04074 25.20049 64.85748 -31.75926 -0.56772 37.2216 71.5536 52.24612 19.76471 -85.05165 -34.60098 3.48637 -4.376 7.27824 -6.37594 -7.81204 4.78561 -4.76526 -8.82162 -3.67224 1.8315 4.03731 -7.75882 7.00745 5.69612 9.523
0.00241 0.57938 0.0029 176.89002 0 -2.7242 6.63077 3.19678 -0.38615 -27.59257 0.92702 1.72694 10.35099 -72.03872 -87.10423 25.18389 64.80476 -31.73703 -0.53914 37.4527 71.5014 51.99246 20.0818 -84.40331 -34.39985 3.42221 -4.35688 7.25741 -6.36124 -7.78196 4.76545 -4.77325 -8.82532 -3.65055 1.80658 4.06064 -7.74026 7.00639 5.69805 9.52833
0.00287 0.57939 0.0032 176.85038 0 -2.7381 6.57131 3.1933 -0.39688 -27.91889 0.94654 1.79259 10.51187 -72.10314 -87.13101 25.17961 64.86382 -31.66517 -0.52606 37.6431 71.45157 51.70991 20.39979 -83.98741 -34.2029 3.38068 -4.30926 7.24564 -6.31283 -7.77938 4.74472 -4.77468 -8.8425 -3.62498 1.79521 4.10415 -7.71025 6.99791 5.6935 9.52368
0.00364 0.57943 0.00345 176.77604 0 -2.77403 6.41507 3.20334 -0.46663 -28.10181 0.92967 1.93015 10.64533 -72.13645 -87.12568 25.20761 65.18866 -31.44686 -0.54056 37.67787 71.42859 51.22424 20.80744 -83.98654 -34.09332 3.36087 -4.19528 7.24977 -6.23763 -7.83895 4.7276 -4.76003 -8.83582 -3.58881 1.81613 4.19295 -7.65538 6.97509 5.67476 9.49821
0.00454 0.57948 0.00367 176.68632 0 -2.8185 6.21686 3.21444 -0.5581 -28.22192 0.9058 2.09112 10.79227 -72.14523 -87.07089 25.2478 65.64274 -31.18352 -0.57285 37.67227 71.4004 50.7382 21.1972 -84.25815 -33.97968 3.37142 -4.05007 7.26459 -6.11928 -7.93001 4.70962 -4.73872 -8.85121 -3.54842 1.85171 4.30275 -7.58892 6.94399 5.64908 9.46238
0.0054 0.57953 0.00389 176.60131 0 -2.85966 6.03121 3.22121 -0.63983 -28.3602 0.8906 2.23831 10.95485 -72.1525 -87.00598 25.28685 66.07479 -30.94969 -0.60503 37.7126 71.36746 50.34928 21.52835 -84.57937 -33.83833 3.39718 -3.91182 7.28075 -5.97617 -8.01597 4.68819 -4.71877 -8.8996 -3.50964 1.88374 4.40728 -7.52534 6.91275 5.62432 9.42808
0.00617 0.57956 0.0042 176.52664 0 -2.89818 5.87425 3.24497 -0.71869 -28.54617 0.84971 2.39836 11.0193 -72.21871 -87.09177 25.3125 66.33854 -30.67228 -0.60308 37.65552 71.38174 49.55386 22.13721 -84.20725 -33.82861 3.30318 -3.80562 7.27135 -6.01079 -8.06002 4.68066 -4.70457 -8.77752 -3.47266 1.90222 4.49435 -7.47086 6.89723 5.60841 9.40605
0.00717 0.57964 0.0043 176.42573 0 -2.94446 5.64589 3.23256 -0.8111 -28.61311 0.86397 2.53752 11.30001 -72.14955 -86.83398 25.36218 66.99788 -30.48092 -0.67733 37.7691 71.27476 49.59876 22.17001 -85.29273 -33.53194 3.46217 -3.62332 7.31694 -5.67665 -8.20244 4.64682 -4.67843 -9.0018 -3.43039 1.95293 4.62253 -7.3955 6.84788 5.57307 9.35719
0.00869 0.57988 0.00387 176.26459 0 -3.00819 5.24623 3.12917 -0.91535 -28.40799 1.00265 2.61146 12.09348 -71.76829 -85.80418 25.53397 68.59071 -30.48003 -0.94731 38.55935 71.01949 52.01159 20.55375 -90.7892 -32.56207 4.34323 -3.25531 7.51845 -4.23409 -8.57935 4.51746 -4.60729 -10.29806 -3.37941 2.08453 4.86021 -7.25947 6.69979 5.48035 9.22743
